<?xml version="1.0" standalone="no"?>
<!DOCTYPE svg PUBLIC "-//W3C//DTD SVG 20010904//EN"
 "http://www.w3.org/TR/2001/REC-SVG-20010904/DTD/svg10.dtd">
<svg version="1.0" xmlns="http://www.w3.org/2000/svg"
 width="100px" height="100px" viewBox="0 0 176.000000 188.000000"
 preserveAspectRatio="xMidYMid meet">
<metadata>
Created by potrace 1.16, written by Peter Selinger 2001-2019
</metadata>
<g transform="translate(0.000000,188.000000) scale(0.100000,-0.100000)"
fill="#000000" stroke="none">
<path d="M1050 1802 c-21 -4 -122 -180 -118 -206 2 -12 9 -20 17 -18 9 2 11
-6 6 -28 l-7 -32 49 7 c63 8 103 24 103 41 0 17 -17 27 -25 14 -3 -5 -14 -10
-23 -10 -14 0 -13 2 3 13 17 13 17 15 -6 30 -13 10 -29 17 -36 17 -7 0 -13 5
-13 10 0 14 28 68 52 101 22 30 21 66 -2 61z"/>
<path d="M547 1224 c-3 -4 -47 -8 -96 -9 -55 -1 -96 -7 -105 -14 -32 -27 -47
-75 -37 -122 1 -7 109 -31 151 -34 14 -1 69 -3 122 -5 97 -2 97 -2 86 -24 -7
-11 -11 -31 -9 -42 1 -12 -7 -38 -19 -59 -12 -21 -18 -45 -15 -56 4 -10 2 -19
-3 -19 -5 0 -19 -21 -30 -47 l-20 -47 29 -27 c33 -31 34 -36 14 -63 -10 -14
-15 -15 -15 -6 0 11 -3 11 -12 2 -15 -15 -58 -16 -58 -1 0 8 -5 7 -15 -1 -13
-11 -14 -10 -10 3 4 8 2 18 -4 22 -7 3 -11 -2 -11 -14 0 -11 -4 -23 -10 -26
-14 -9 -12 -25 3 -20 14 6 40 -31 32 -45 -11 -18 -26 -10 -20 10 5 15 2 20
-12 21 -62 5 -73 4 -73 -6 0 -6 5 -16 12 -23 8 -8 8 -12 1 -12 -15 0 -9 -86 7
-105 7 -8 20 -15 29 -15 14 0 14 -2 1 -10 -23 -14 -4 -23 21 -10 19 11 21 10
16 -5 -4 -9 -7 -21 -7 -26 0 -6 -4 -7 -10 -4 -5 3 -10 2 -10 -3 0 -13 162 -35
265 -35 59 0 111 6 150 18 33 10 84 17 113 16 42 -1 52 2 52 15 0 12 -7 14
-27 10 -66 -14 -155 -17 -169 -6 -10 9 -17 8 -31 -5 -11 -12 -18 -14 -21 -6
-2 6 -26 11 -57 11 -33 0 -57 5 -65 14 -6 8 -18 12 -26 9 -8 -3 -14 0 -14 6 0
6 -7 11 -16 11 -8 0 -12 4 -9 10 6 9 -8 14 -27 11 -5 0 -8 4 -8 10 0 6 -7 9
-15 5 -8 -3 -15 -1 -15 4 0 13 45 23 75 17 14 -2 28 0 31 5 4 6 28 7 58 2 28
-4 103 -8 166 -9 63 -1 140 -5 170 -8 l55 -8 -55 19 c-30 10 -64 23 -75 29
-28 15 -84 27 -65 14 20 -14 12 -19 -37 -22 -35 -3 -49 2 -82 29 -22 18 -47
32 -55 32 -9 0 -16 7 -16 16 0 8 4 12 10 9 5 -3 18 -1 27 4 11 6 13 11 5 11
-7 0 -11 4 -7 9 3 5 1 12 -5 16 -19 12 -10 23 27 32 31 7 38 13 38 33 0 14 -9
33 -20 42 -20 17 -20 17 4 11 43 -11 18 19 -27 33 -24 6 -49 18 -58 24 -8 7
-17 10 -21 7 -8 -8 -33 12 -33 25 0 6 7 5 15 -2 10 -8 19 -9 24 -4 14 15 22
62 11 66 -6 2 -3 14 7 28 19 28 20 30 29 80 11 59 48 104 97 116 l42 10 -43
23 c-24 12 -48 18 -55 14 -7 -4 -20 -9 -29 -10 -26 -4 -150 24 -157 35 -8 13
-46 24 -54 16z"/>
<path d="M1063 1199 c-37 -11 -51 -28 -33 -39 8 -5 7 -9 -4 -13 -22 -9 -20
-37 3 -37 10 0 22 -7 25 -16 4 -12 2 -15 -9 -10 -8 3 -15 1 -15 -5 0 -6 21 -9
53 -7 38 2 52 7 53 18 2 32 5 34 20 12 34 -49 95 -48 114 3 l9 25 50 -25 c59
-30 65 -31 52 -6 -6 10 -7 22 -3 26 4 5 1 5 -5 1 -8 -4 -17 2 -24 18 -6 13
-19 24 -28 24 -9 0 -25 3 -35 7 -14 6 -17 5 -12 -4 6 -9 1 -12 -15 -9 -16 2
-23 9 -21 19 1 9 -6 19 -15 21 -34 8 -128 7 -160 -3z"/>
<path d="M645 220 c6 -10 3 -12 -13 -8 -14 4 -19 2 -16 -7 4 -10 -8 -13 -48
-13 -33 0 -46 3 -34 7 11 4 15 10 10 13 -14 9 -55 3 -62 -9 -5 -8 -17 -8 -43
1 -19 7 -43 10 -53 6 -15 -5 -14 -8 9 -30 14 -13 23 -30 21 -36 -3 -7 0 -29 5
-48 8 -29 20 -41 62 -64 l52 -27 311 0 310 0 42 27 c23 15 46 37 52 49 10 19
9 20 -9 14 -11 -3 -94 -6 -183 -6 -120 0 -175 4 -208 15 -25 8 -54 14 -65 12
-13 -3 -34 12 -63 43 -24 25 -40 38 -37 29 4 -9 1 -19 -6 -24 -8 -4 -10 -3 -5
4 4 7 3 12 -3 12 -5 0 -12 -6 -15 -12 -3 -7 -4 2 -3 20 2 18 -1 36 -6 39 -6 4
-7 1 -2 -7z"/>
</g>
</svg>
